<svg width="41" height="40" viewBox="0 0 41 40" fill="none" xmlns="http://www.w3.org/2000/svg">
<path fill-rule="evenodd" clip-rule="evenodd" d="M20.5 0C9.16391 0 0 9.16808 0 20.5093C0 29.5755 5.87169 37.2496 14.0174 39.966C15.0356 40.1698 15.4089 39.5246 15.4089 38.9813C15.4089 38.5059 15.375 36.8761 15.375 35.1783C9.67301 36.4007 8.4851 32.7334 8.4851 32.7334C7.56871 30.3565 6.21109 29.7453 6.21109 29.7453C4.34437 28.489 6.34685 28.489 6.34685 28.489C8.41722 28.6248 9.50331 30.5942 9.50331 30.5942C11.3361 33.7182 14.2889 32.8353 15.4768 32.292C15.6465 30.9677 16.1896 30.0509 16.7666 29.5416C12.2185 29.0662 7.43295 27.3005 7.43295 19.4227C7.43295 17.1817 8.24752 15.348 9.53725 13.9219C9.33361 13.4126 8.62086 11.3073 9.74089 8.48896C9.74089 8.48896 11.4719 7.94567 15.375 10.5942C17.0041 10.1528 18.769 9.91511 20.5 9.91511C22.231 9.91511 23.9959 10.1528 25.625 10.5942C29.5281 7.94567 31.2591 8.48896 31.2591 8.48896C32.3791 11.3073 31.6664 13.4126 31.4627 13.9219C32.7864 15.348 33.5671 17.1817 33.5671 19.4227C33.5671 27.3005 28.7815 29.0323 24.1995 29.5416C24.9462 30.1868 25.5911 31.4092 25.5911 33.3446C25.5911 36.0951 25.5571 38.3022 25.5571 38.9813C25.5571 39.5246 25.9305 40.1698 26.9487 39.966C35.0944 37.2496 40.9661 29.5755 40.9661 20.5093C41 9.16808 31.8022 0 20.5 0Z" fill="white"/>
</svg>
